#!OML:ASF H:\Terrain\Patient Classification 1\Walking\liu\liu.ASF
:FULLY-SPECIFIED
:DEGREES
198
root 8.53669 16.3651 17.2046 4.82845 3.55099 1.0162
lowerback -5.38126 -4.43542 1.81615
upperback -0.268147 -6.11403 3.19213
thorax 2.89095 -3.04144 1.79371
lowerneck -22.4343 -1.06679 -11.5025
upperneck 21.7848 0.750531 6.6841
head 10.645 0.21288 4.45659
rclavicle -3.57812e-015 1.59028e-014
rhumerus -53.3828 -5.10742 -59.4953
rradius 19.7889
rwrist -1.5478
rhand -36.9202 -25.8933
rfingers 7.12502
rthumb -9.99764 -55.6358
lclavicle -3.57812e-015 1.59028e-014
lhumerus -19.5038 -20.8057 90.0621
lradius 49.1196
lwrist 16.8629
lhand -20.1532 -30.769
lfingers 7.12502
lthumb 6.19196 -0.879532
rfemur -38.8837 4.84927 21.7877
rtibia 46.9791
rfoot -11.3904 6.01585
rtoes -19.3014
lfemur 9.33882 10.9255 -16.5487
ltibia 50.4668
lfoot 12.2365 15.7266
ltoes -15.1516
199
root 8.52161 16.4197 17.4818 4.73368 3.82744 0.175653
lowerback -5.28878 -4.28058 2.46074
upperback -0.171141 -5.95427 3.46645
thorax 2.90044 -2.95446 1.73719
lowerneck -22.0641 -1.28608 -11.5532
upperneck 21.2252 0.398005 6.78246
head 10.409 0.0717163 4.42464
rclavicle -1.00386e-013 9.54166e-015
rhumerus -52.5969 -6.88989 -58.6023
rradius 19.1791
rwrist -0.0199598
rhand -37.0871 -25.4181
rfingers 7.12502
rthumb -10.1587 -55.1528
lclavicle -1.00386e-013 9.54166e-015
lhumerus -19.8439 -19.9424 90.6232
lradius 48.5065
lwrist 15.8448
lhand -20.4942 -31.3003
lfingers 7.12502
lthumb 5.86265 -1.40136
rfemur -37.5234 4.73968 22.9242
rtibia 46.6984
rfoot -11.8337 6.09356
rtoes -14.7232
lfemur 6.6261 10.7999 -15.5608
ltibia 54.7524
lfoot 11.3783 16.6708
ltoes -5.23003
200
root 8.50839 16.4752 17.7478 4.83271 4.15724 -0.709274
lowerback -5.58419 -4.14872 3.12961
upperback 0.026114 -5.85605 3.81325
thorax 3.23941 -2.89308 1.70233
lowerneck -22.0682 -1.56913 -11.8923
upperneck 20.9865 0.0414612 7.10486
head 10.3604 -0.0735077 4.54021
rclavicle -3.10104e-014 4.77083e-015
rhumerus -51.5849 -8.6491 -57.8947
rradius 18.7506
rwrist 1.26542
rhand -36.7354 -24.8421
rfingers 7.12502
rthumb -9.81939 -54.5932
lclavicle -3.10104e-014 4.77083e-015
lhumerus -19.9225 -19.7892 91.1127
lradius 47.8329
lwrist 15.6725
lhand -20.449 -31.6391
lfingers 7.12502
lthumb 5.90632 -1.74142
rfemur -36.3771 4.53624 24.1463
rtibia 46.2592
rfoot -12.8922 5.94455
rtoes -14.4443
lfemur 3.6733 10.6268 -14.6184
ltibia 58.5371
lfoot 9.24215 16.0655
ltoes -3.21571
201
root 8.50039 16.524 17.998 5.06015 4.54542 -1.31552
lowerback -5.5884 -4.07091 3.57145
upperback -0.0680008 -5.78507 4.12194
thorax 3.13293 -2.85461 1.78702
lowerneck -22.2601 -1.77619 -12.1555
upperneck 21.1036 -0.187525 7.31179
head 10.4642 -0.175688 4.63387
rclavicle -5.80451e-014 3.18055e-014
rhumerus -51.0056 -8.64947 -58.6235
rradius 19.368
rwrist 0.437811
rhand -36.6292 -26.2353
rfingers 7.12502
rthumb -9.71694 -55.9911
lclavicle -5.80451e-014 3.18055e-014
lhumerus -20.3134 -19.504 91.7943
lradius 46.8825
lwrist 15.7263
lhand -20.5387 -31.5777
lfingers 7.12502
lthumb 5.81969 -1.67763
rfemur -35.2577 4.13995 25.0662
rtibia 45.7448
rfoot -13.8561 5.85632
rtoes -14.8037
lfemur 0.561405 10.3318 -14.0887
ltibia 61.8046
lfoot 5.55985 15.6003
ltoes -9.41171
202
root 8.48938 16.5789 18.2484 5.36008 4.89155 -1.37056
lowerback -5.37661 -4.01288 3.39958
upperback -0.392856 -5.66879 4.25717
thorax 2.70712 -2.80727 2.05895
lowerneck -22.1705 -1.87148 -12.0444
upperneck 21.2101 -0.362744 7.2699
head 10.5061 -0.256091 4.57657
rclavicle -2.00773e-014 -3.18055e-015
rhumerus -50.654 -7.21937 -60.5509
rradius 20.2901
rwrist -2.11067
rhand -36.9816 -28.3032
rfingers 7.12502
rthumb -10.0569 -58.0429
lclavicle -2.00773e-014 -3.18055e-015
lhumerus -21.1203 -19.0424 92.5472
lradius 45.8379
lwrist 15.4057
lhand -21.2347 -31.511
lfingers 7.12502
lthumb 5.14771 -1.59349
rfemur -34.2245 3.8346 25.3126
rtibia 45.2232
rfoot -14.8172 5.89171
rtoes -14.7414
lfemur -2.49597 9.98087 -14.236
ltibia 64.487
lfoot 3.86246 15.0533
ltoes -5.32934
203
root 8.47573 16.6284 18.5006 5.778 5.10052 -0.886347
lowerback -5.4966 -3.96364 2.62344
upperback -0.650623 -5.55001 4.22095
thorax 2.57541 -2.75959 2.45896
lowerneck -21.7025 -2.02267 -12.0529
upperneck 21.1429 -0.651624 7.34742
head 10.4276 -0.384098 4.55629
rclavicle -1.87852e-014 2.70347e-014
rhumerus -50.1448 -6.53381 -61.8052
rradius 20.6665
rwrist -3.21786
rhand -36.8181 -27.2807
rfingers 7.12502
rthumb -9.89917 -57.0279
lclavicle -1.87852e-014 2.70347e-014
lhumerus -22.0035 -18.5949 93.1694
lradius 44.8904
lwrist 14.7823
lhand -21.7456 -31.4968
lfingers 7.12502
lthumb 4.65445 -1.56791
rfemur -33.3461 3.65729 24.9403
rtibia 44.6976
rfoot -15.6707 5.95062
rtoes -16.1966
lfemur -5.4498 9.47081 -15.2245
ltibia 66.5669
lfoot 0.536843 14.0865
ltoes -11.5866
204
root 8.46775 16.6828 18.7521 6.12172 5.25674 -0.71409
lowerback -5.68692 -3.82269 2.28423
upperback -0.800361 -5.34483 4.24552
thorax 2.55472 -2.66131 2.67988
lowerneck -21.1346 -2.36979 -12.4524
upperneck 20.9132 -1.12282 7.54181
head 10.2971 -0.611883 4.61232
rclavicle 2.59414e-014 -6.36111e-015
rhumerus -49.4796 -6.83385 -62.2922
rradius 20.8078
rwrist -3.03878
rhand -36.5787 -25.6471
rfingers 7.12502
rthumb -9.66819 -55.4052
lclavicle 2.59414e-014 -6.36111e-015
lhumerus -22.8907 -18.4673 93.7983
lradius 43.9888
lwrist 14.3904
lhand -21.7112 -31.1036
lfingers 7.12502
lthumb 4.68765 -1.17549
rfemur -32.4298 3.3948 24.9815
rtibia 44.1148
rfoot -16.3553 5.8162
rtoes -20.6187
lfemur -8.30503 8.8774 -15.93
ltibia 68.1731
lfoot -1.72593 13.0038
ltoes -14.1044
205
root 8.46197 16.7495 19.0103 6.13269 5.18981 -0.951488
lowerback -5.55596 -3.58576 2.37029
upperback -0.854506 -5.02745 4.35164
thorax 2.4173 -2.5036 2.77793
lowerneck -20.5389 -2.70191 -13.1121
upperneck 20.457 -1.59399 8.15459
head 10.088 -0.806885 4.86043
rclavicle 3.94091e-014 -1.90833e-014
rhumerus -48.6215 -7.07222 -62.8403
rradius 20.6704
rwrist -3.01543
rhand -36.6893 -23.3696
rfingers 7.12502
rthumb -9.7749 -53.1227
lclavicle 3.94091e-014 -1.90833e-014
lhumerus -23.809 -18.4543 94.4246
lradius 43.0115
lwrist 14.5709
lhand -21.2541 -30.6226
lfingers 7.12502
lthumb 5.12904 -0.70472
rfemur -31.0886 3.40078 25.4429
rtibia 43.4332
rfoot -16.7728 5.7773
rtoes -20.6171
lfemur -10.6951 8.7394 -15.9721
ltibia 69.3683
lfoot -3.1964 11.5749
ltoes -14.6163
206
root 8.45306 16.8035 19.2661 5.9156 4.97198 -0.940536
lowerback -5.21882 -3.36804 2.06837
upperback -0.778695 -4.70913 4.39215
thorax 2.32403 -2.34918 3.03021
lowerneck -19.725 -2.85999 -14.0659
upperneck 19.5072 -1.93771 9.56492
head 9.66375 -0.869819 5.4524
rclavicle -6.56983e-014 4.29375e-014
rhumerus -47.6029 -7.08492 -63.6347
rradius 20.6088
rwrist -3.0881
rhand -36.1482 -20.3269
rfingers 7.12502
rthumb -9.25279 -50.1039
lclavicle -6.56983e-014 4.29375e-014
lhumerus -24.5574 -18.354 94.9332
lradius 41.9073
lwrist 14.8538
lhand -20.8663 -30.2475
lfingers 7.12502
lthumb 5.50347 -0.339006
rfemur -29.2653 3.85986 25.4952
rtibia 42.6283
rfoot -17.1917 5.92835
rtoes -15.2208
lfemur -12.6905 8.67338 -16.2824
ltibia 70.2224
lfoot -4.51494 10.5444
ltoes -16.6413
207
root 8.44562 16.8498 19.5067 6.03052 4.95745 -0.818229
lowerback -5.22996 -3.19381 1.71193
upperback -0.678551 -4.46346 4.39967
thorax 2.45161 -2.23048 3.25096
lowerneck -20.8317 -3.4258 -13.4262
upperneck 20.4527 -2.58238 8.62973
head 10.2731 -1.2266 4.94657
rclavicle -1.11319e-014 9.54166e-015
rhumerus -46.3309 -6.39195 -65.3252
rradius 21.2021
rwrist -4.25579
rhand -35.9648 -20.597
rfingers 7.12502
rthumb -9.07587 -50.3817
lclavicle -1.11319e-014 9.54166e-015
lhumerus -25.0895 -18.4156 95.3518
lradius 40.7602
lwrist 14.8007
lhand -20.8658 -29.7051
lfingers 7.12502
lthumb 5.50391 0.203464
rfemur -27.8217 4.28278 25.3982
rtibia 41.7288
rfoot -17.8233 5.81781
rtoes -10.8414
lfemur -15.1562 8.15953 -16.9087
ltibia 70.8499
lfoot -6.29247 10.1665
ltoes -17.7899
208
root 8.43848 16.8898 19.7442 6.41503 5.01954 -0.826752
lowerback -5.40006 -2.98857 1.62767
upperback -0.799956 -4.18635 4.40562
thorax 2.41488 -2.09243 3.31985
lowerneck -20.0348 -3.66892 -13.7887
upperneck 19.8517 -2.98238 8.97415
head 9.97347 -1.40166 5.05303
rclavicle -1.19271e-015 3.02153e-014
rhumerus -45.2214 -5.33242 -67.2382
rradius 21.6922
rwrist -5.65045
rhand -36.3386 -21.4982
rfingers 7.12502
rthumb -9.43649 -51.2669
lclavicle -1.19271e-015 3.02153e-014
lhumerus -25.9969 -18.4488 95.8112
lradius 39.7175
lwrist 14.667
lhand -20.6434 -29.3088
lfingers 7.12502
lthumb 5.71864 0.594062
rfemur -26.7268 4.66399 25.5123
rtibia 40.7802
rfoot -18.3389 5.48689
rtoes -9.97331
lfemur -17.9865 7.57397 -17.4188
ltibia 71.2667
lfoot -7.83746 9.79412
ltoes -16.2992
209
root 8.4307 16.9204 19.9914 6.47816 5.06251 -1.0774
lowerback -5.38093 -2.77565 1.77352
upperback -0.861434 -3.90774 4.45936
thorax 2.32126 -1.95192 3.3184
lowerneck -19.2001 -3.95514 -14.61
upperneck 19.305 -3.46091 9.93792
head 9.72215 -1.58397 5.4575
rclavicle -1.42131e-014 3.18055e-015
rhumerus -44.2514 -4.25663 -68.8964
rradius 22.0231
rwrist -6.1749
rhand -35.856 -22.1234
rfingers 7.12502
rthumb -8.97089 -51.9127
lclavicle -1.42131e-014 3.18055e-015
lhumerus -27.1014 -18.3128 96.1915
lradius 38.8227
lwrist 14.7051
lhand -19.6816 -28.901
lfingers 7.12502
lthumb 6.64717 0.974677
rfemur -25.2855 5.09805 25.963
rtibia 39.7821
rfoot -18.518 5.07826
rtoes -11.8178
lfemur -20.4156 7.16042 -17.5225
ltibia 71.4357
lfoot -8.69166 9.46636
ltoes -15.598
210
root 8.42285 16.9537 20.2419 6.35144 5.20208 -1.31201
lowerback -5.21687 -2.69634 1.83055
upperback -0.862645 -3.799 4.52222
thorax 2.22377 -1.89761 3.36799
lowerneck -18.7261 -4.1395 -15.0775
upperneck 18.9707 -3.80643 10.6661
head 9.59027 -1.7045 5.74405
rclavicle 0 -2.70347e-014
rhumerus -43.3316 -2.79741 -70.63
rradius 22.5723
rwrist -6.65643
rhand -34.5423 -22.9008
rfingers 7.12502
rthumb -7.70299 -52.7405
lclavicle 0 -2.70347e-014
lhumerus -28.2467 -18.152 96.456
lradius 37.9598
lwrist 14.7822
lhand -18.8237 -28.1002
lfingers 7.12502
lthumb 7.47536 1.74768
rfemur -23.6957 5.41191 26.4569
rtibia 38.7998
rfoot -18.9115 4.42043
rtoes -14.6868
lfemur -22.5078 6.64704 -17.5579
ltibia 71.2801
lfoot -9.8057 9.53706
ltoes -16.5455
211
root 8.41672 16.991 20.4986 6.3181 5.13921 -1.32796
lowerback -4.99977 -2.596 1.69061
upperback -1.01519 -3.64017 4.52114
thorax 1.94601 -1.81914 3.47075
lowerneck -17.9418 -4.20997 -15.4762
upperneck 18.5635 -4.02349 11.2449
head 9.35731 -1.78563 5.9792
rclavicle 3.22031e-014 -2.70347e-014
rhumerus -42.6341 -1.17394 -72.3313
rradius 23.1085
rwrist -7.078
rhand -34.2826 -24.4401
rfingers 7.12502
rthumb -7.45236 -54.2888
lclavicle 3.22031e-014 -2.70347e-014
lhumerus -29.6438 -18.2018 96.8234
lradius 37.0693
lwrist 14.9368
lhand -18.4027 -27.1467
lfingers 7.12502
lthumb 7.88172 2.68638
rfemur -22.1194 5.75012 26.7064
rtibia 37.9009
rfoot -19.8097 3.92498
rtoes -17.1559
lfemur -24.4159 6.26971 -17.8728
ltibia 70.7637
lfoot -11.4753 9.90807
ltoes -16.8068
212
root 8.41855 17.0262 20.7553 6.50646 4.51392 -1.38085
lowerback -5.0686 -2.27751 1.67614
upperback -1.13052 -3.21196 4.51769
thorax 1.84473 -1.60469 3.50483
lowerneck -17.4047 -4.32821 -15.9229
upperneck 18.3717 -4.24747 11.726
head 9.24804 -1.88351 6.19425
rclavicle 1.78409e-014 1.74931e-014
rhumerus -41.7481 0.34788 -73.8199
rradius 23.75
rwrist -7.50287
rhand -36.0653 -26.3684
rfingers 7.12502
rthumb -9.17284 -56.1489
lclavicle 1.78409e-014 1.74931e-014
lhumerus -31.037 -18.3374 97.2201
lradius 36.3531
lwrist 15.0672
lhand -17.6787 -25.9207
lfingers 7.12502
lthumb 8.58038 3.88496
rfemur -20.9081 6.31744 26.8535
rtibia 37.2186
rfoot -20.404 4.16898
rtoes -15.0624
lfemur -26.3852 6.43179 -18.2925
ltibia 69.9573
lfoot -12.8688 10.5998
ltoes -17.6129
